<?xml version="1.0" standalone="no"?>
<!DOCTYPE svg PUBLIC "-//W3C//DTD SVG 20010904//EN"
 "http://www.w3.org/TR/2001/REC-SVG-20010904/DTD/svg10.dtd">
<svg version="1.0" xmlns="http://www.w3.org/2000/svg"
 width="512.000000pt" height="512.000000pt" viewBox="0 0 512.000000 512.000000"
 preserveAspectRatio="xMidYMid meet">
<metadata>
Created by potrace 1.11, written by Peter Selinger 2001-2013
</metadata>
<g transform="translate(0.000000,512.000000) scale(0.100000,-0.100000)"
fill="#000000" stroke="none">
<path d="M995 4899 c-142 -24 -270 -92 -381 -203 -90 -90 -142 -174 -182 -294
-26 -77 -26 -79 -30 -464 l-3 -388 -172 0 c-180 -1 -192 -3 -215 -47 -17 -32
-16 -932 1 -954 26 -34 55 -39 221 -39 l166 0 0 -58 0 -59 -49 -31 c-95 -62
-158 -155 -182 -270 -7 -35 -9 -167 -7 -385 4 -327 5 -333 31 -420 71 -232
216 -421 404 -528 l43 -24 0 -237 c0 -252 4 -278 47 -297 33 -15 673 -15 706
0 42 19 47 47 47 264 l0 205 1120 0 1120 0 0 -205 c0 -217 5 -245 47 -264 33
-15 673 -15 706 0 43 19 47 45 47 297 l0 237 43 24 c188 107 333 296 404 528
26 87 27 93 31 420 2 218 0 350 -7 385 -24 115 -87 208 -182 270 l-49 31 0 59
0 58 166 0 c166 0 195 5 221 39 17 22 18 922 1 954 -23 44 -35 46 -215 47
l-172 0 -3 388 c-4 385 -4 387 -30 464 -40 120 -92 204 -182 294 -90 89 -174
142 -294 183 l-77 26 -1545 1 c-850 1 -1567 -2 -1595 -7z m3178 -176 c133 -51
226 -124 296 -233 38 -59 81 -166 81 -202 0 -17 -78 -18 -1990 -18 -1912 0
-1990 1 -1990 18 0 36 43 143 81 202 85 131 229 227 379 253 14 3 714 4 1555
3 l1530 -1 58 -22z m387 -1453 l0 -840 -2000 0 -2000 0 0 840 0 840 2000 0
2000 0 0 -840z m-4160 -240 l0 -360 -120 0 -120 0 0 360 0 360 120 0 120 0 0
-360z m4560 0 l0 -360 -120 0 -120 0 0 360 0 360 120 0 120 0 0 -360z m-305
-786 c51 -28 91 -68 119 -119 20 -39 21 -51 21 -380 0 -385 -3 -405 -88 -570
-54 -105 -182 -236 -277 -282 -135 -67 -12 -63 -1870 -63 -1858 0 -1735 -4
-1870 63 -95 47 -223 177 -277 282 -84 163 -87 179 -91 541 -2 204 0 336 7
360 14 54 56 115 97 143 77 53 -45 50 2149 48 l2040 -2 40 -21z"/>
<path d="M1519 3528 c-104 -60 -103 -218 1 -277 107 -60 240 17 240 139 0 122
-135 200 -241 138z"/>
<path d="M3439 3528 c-104 -60 -103 -218 1 -277 107 -60 240 17 240 139 0 122
-135 200 -241 138z"/>
<path d="M2115 3168 c-49 -26 -59 -81 -25 -133 68 -104 204 -197 335 -230 217
-55 464 35 596 217 35 49 37 91 6 122 -22 22 -27 23 -347 29 -437 9 -541 8
-565 -5z"/>
<path d="M780 2096 c-212 -59 -341 -276 -286 -481 41 -154 156 -263 311 -295
230 -48 458 127 473 363 9 150 -57 280 -185 363 -90 59 -211 78 -313 50z m190
-167 c60 -27 98 -64 126 -124 41 -86 24 -186 -44 -259 -38 -40 -118 -76 -172
-76 -27 0 -66 10 -95 24 -191 90 -191 342 0 432 62 29 125 30 185 3z"/>
<path d="M1945 2085 c-16 -15 -25 -36 -25 -55 0 -19 9 -40 25 -55 l24 -25 591
0 591 0 24 25 c16 15 25 36 25 55 0 19 -9 40 -25 55 l-24 25 -591 0 -591 0
-24 -25z"/>
<path d="M4132 2094 c-59 -15 -143 -66 -183 -110 -185 -203 -123 -519 125
-635 224 -105 487 21 552 266 77 289 -201 558 -494 479z m198 -165 c60 -27 98
-64 126 -124 41 -86 24 -186 -44 -259 -38 -40 -118 -76 -172 -76 -54 0 -134
36 -172 76 -114 122 -76 308 77 380 62 29 125 30 185 3z"/>
<path d="M1945 1845 c-16 -15 -25 -36 -25 -55 0 -19 9 -40 25 -55 l24 -25 591
0 591 0 24 25 c16 15 25 36 25 55 0 19 -9 40 -25 55 l-24 25 -591 0 -591 0
-24 -25z"/>
<path d="M1945 1605 c-16 -15 -25 -36 -25 -55 0 -19 9 -40 25 -55 l24 -25 591
0 591 0 24 25 c16 15 25 36 25 55 0 19 -9 40 -25 55 l-24 25 -591 0 -591 0
-24 -25z"/>
<path d="M1945 1365 c-33 -32 -33 -75 1 -109 l27 -26 587 0 587 0 27 26 c34
34 34 77 1 109 l-24 25 -591 0 -591 0 -24 -25z"/>
<path d="M1945 1125 c-33 -32 -33 -75 1 -109 l27 -26 587 0 587 0 27 26 c34
34 34 77 1 109 l-24 25 -591 0 -591 0 -24 -25z"/>
</g>
</svg>
